# xmcd CD database file generated by Grip 3.3.1
# 
# Track frame offsets:
#       150
#       28482
#       49530
#       67265
#       83450
#       100447
#       116757
#       128120
#       144232
#       158525
#       176567
#       193909
#       217410
#       234082
# 
# Disc length: 3359 seconds
# 
# Revision: 3
# Processed by: cddbd v1.5.2PL0 Copyright (c) Steve Scherf et al.
# Submitted via: Grip 3.3.1
# 
DISCID=c80d1d0e
DTITLE=Various Artist - Tribal Legends
DYEAR=2002
DGENRE=Native American
TTITLE0=Joseph Fire Crow and Joseph Marshall - Legend of the Warrior (Keep 
TTITLE0=Going)
TTITLE1=R. Carlos Nakai, William Eaton and Black Lodge Singers - Many Flags
TTITLE2=Brule - Stomp Dance
TTITLE3=Lawrence Laughing - Togetherness
TTITLE4=Medicine Dream - P'Jilasi
TTITLE5=Joseph Fire Crow - The Nature Of
TTITLE6=Kevin Locke - Morning Star
TTITLE7=Andrew Vasquez - Through My Eyes
TTITLE8=Joanne Shenandoah - Life Giver
TTITLE9=R. Carlos Nakai, Robert Tree Cody and Cliff Sarde - Plains Wind
TTITLE10=Quilt Man - Mornings Wings
TTITLE11=Andrew Vasquez - Flying Low
TTITLE12=Lawrence Laughing - I Wish You Peace
TTITLE13=Mary Youngblood - Beneath the Raven Moon
EXTD=YEAR: 2002 ID3G: 64
EXTT0=
EXTT1=
EXTT2=
EXTT3=
EXTT4=
EXTT5=
EXTT6=
EXTT7=
EXTT8=
EXTT9=
EXTT10=
EXTT11=
EXTT12=
EXTT13=
PLAYORDER=
